<?xml version="1.0" encoding="UTF-8" standalone="no"?>
<!-- Created with Inkscape (http://www.inkscape.org/) -->

<svg
   width="32.826385mm"
   height="21.2477mm"
   viewBox="0 0 32.826386 21.2477"
   version="1.1"
   id="svg1"
   xmlns="http://www.w3.org/2000/svg"
   xmlns:svg="http://www.w3.org/2000/svg">
  <defs
     id="defs1" />
  <g
     id="layer3"
     transform="translate(-10.583334,-10.574433)">
    <g
       id="g12"
       transform="translate(-34.471221,-54.697417)">
      <path
         style="fill:none;stroke:#ff5555;stroke-width:1.4;stroke-linecap:round;stroke-linejoin:round;stroke-dasharray:none;stroke-dashoffset:0"
         d="m 45.754555,72.921083 c 0.317958,-1.38728 1.150482,-2.268468 1.96137,-2.268468 0.980626,0 1.501223,0.857169 1.023232,2.299125 -0.477994,1.441955 -1.916215,7.078936 -1.916215,7.078936"
         id="path8" />
      <path
         style="fill:none;stroke:#ff5555;stroke-width:1.4;stroke-linecap:round;stroke-linejoin:round;stroke-dasharray:none;stroke-dashoffset:0"
         d="m 48.21616,74.745637 c 0.59766,-2.044387 1.226614,-3.039052 1.812336,-3.580341 0.684039,-0.632147 1.25877,-0.576506 1.429478,-0.541048 0.49303,0.102407 0.785852,0.509768 0.721093,1.180073 -0.0386,0.399583 -0.163362,0.894597 -0.339059,1.472182 -0.50134,1.6481 -1.780585,6.838886 -1.780585,6.838886"
         id="path9" />
      <path
         style="fill:none;stroke:#ff5555;stroke-width:1.4;stroke-linecap:round;stroke-linejoin:round;stroke-dasharray:none;stroke-dashoffset:0"
         d="m 51.454675,74.649039 c 0.492016,-1.749148 1.061648,-2.826019 1.743642,-3.424835 0.510169,-0.447947 1.020067,-0.623294 1.444922,-0.494326 0.309848,0.09406 0.727754,0.381726 0.665027,1.242986 -0.02781,0.381831 -0.127071,0.843889 -0.289016,1.376264 -0.50134,1.6481 -1.513057,4.818879 -1.513057,4.818879 -0.574781,1.694719 0.301443,2.056167 0.798544,2.037917 1.18585,-0.04354 1.789426,-2.244816 2.124024,-3.537286"
         id="path9-6" />
      <path
         style="fill:none;stroke:#ff5555;stroke-width:1.4;stroke-linecap:round;stroke-linejoin:round;stroke-dasharray:none;stroke-dashoffset:0"
         d="m 56.883218,74.51415 c -0.170299,0.674348 -0.346145,1.426152 -0.454457,2.154488 -0.182174,1.225025 -0.1733,2.383664 0.374347,2.995711 0.429232,0.479707 1.404276,0.775196 2.399405,0.248567 0.577816,-0.305783 1.117495,-1.007816 1.613328,-2.086888 0.353739,-0.769834 0.571476,-1.583753 0.785828,-2.631846 0.286556,-1.401141 0.546967,-2.95583 0.05987,-3.783302 -0.551134,-0.936258 -1.860608,-0.820133 -2.593839,-0.435182 -0.553196,0.290432 -1.114134,0.843054 -1.574692,1.81696 -0.257388,0.544279 -0.452491,1.141269 -0.609788,1.721492 z"
         id="path10" />
      <path
         style="fill:none;stroke:#ff5555;stroke-width:1.4;stroke-linecap:round;stroke-linejoin:round;stroke-dasharray:none;stroke-dashoffset:0"
         d="m 59.756161,70.739113 c -1.738697,0.438862 -1.482928,3.473568 0.807342,3.150715 0.430958,-0.06075 6.872993,-1.125933 7.34302,-6.141673 0.108046,-1.152978 -0.396782,-1.886445 -1.110883,-1.766953 -0.64416,0.107789 -0.93895,0.719002 -1.337323,1.886303 -0.39434,1.15548 -0.752656,2.753526 -1.105903,4.541371 -0.284543,1.440128 -0.800118,3.723138 -1.04465,5.276222 -0.109527,0.695626 -0.265586,2.502492 1.028597,2.50631 0.985685,0.0029 2.902882,-1.717653 3.811777,-4.465691"
         id="path11" />
      <path
         style="fill:none;stroke:#ff5555;stroke-width:1.4;stroke-linecap:round;stroke-linejoin:round;stroke-dasharray:none;stroke-dashoffset:0"
         d="m 68.832395,72.408876 c 1.67408,-0.898344 3.322588,-2.190117 3.554109,-4.660721 0.108046,-1.152978 -0.396782,-1.886445 -1.110883,-1.766953 -0.64416,0.107789 -0.93895,0.719002 -1.337323,1.886303 -0.39434,1.15548 -0.752656,2.753526 -1.105903,4.541371 -0.284543,1.440128 -0.800118,3.723138 -1.04465,5.276222 -0.109527,0.695626 -0.265586,2.502492 1.028597,2.50631 0.985685,0.0029 2.733084,-1.820332 3.641979,-4.56837"
         id="path11-2" />
      <path
         style="fill:none;stroke:#ff5555;stroke-width:1.4;stroke-linecap:round;stroke-linejoin:round;stroke-dasharray:none;stroke-dashoffset:0"
         d="m 73.325593,71.298236 c -0.287228,2.293064 -1.281711,5.73547 -1.261861,6.32784 0.04489,1.339489 0.871146,1.836617 2.069566,1.832732 1.19842,-0.0039 1.574116,-1.176797 1.846592,-2.244881 0.272477,-1.068083 1.183818,-5.63204 1.183818,-5.63204 m -1.183818,5.63204 c -0.369088,1.721273 -0.889884,4.098289 -1.024635,4.761729 -0.364885,1.796491 -1.071808,3.827791 -2.573834,3.843793 -1.502024,0.01599 -2.00433,-1.580216 -1.271807,-2.675301 0.732524,-1.095086 2.50992,-1.217336 3.779677,-0.858744 1.359058,0.383811 2.27557,1.211456 2.29165,2.785032"
         id="path11-8" />
    </g>
  </g>
</svg>
